<svg xmlns="http://www.w3.org/2000/svg" viewBox="0 0 1200 1500" role="img" aria-labelledby="title desc">
  <title id="title">Burcu ve Alperen için romantik davetiye görseli</title>
  <desc id="desc">Krem zemin üzerinde muted gold çiçek dalları ve modern monogram.</desc>
  <defs>
    <linearGradient id="paper" x1="0" x2="1" y1="0" y2="1">
      <stop offset="0" stop-color="#fff8ee"/>
      <stop offset=".52" stop-color="#f2e0c5"/>
      <stop offset="1" stop-color="#dbc092"/>
    </linearGradient>
    <linearGradient id="gold" x1="0" x2="1">
      <stop offset="0" stop-color="#9d7b3d"/>
      <stop offset=".5" stop-color="#d5b471"/>
      <stop offset="1" stop-color="#8c6a32"/>
    </linearGradient>
    <filter id="soft" x="-20%" y="-20%" width="140%" height="140%">
      <feGaussianBlur stdDeviation="18"/>
    </filter>
  </defs>
  <rect width="1200" height="1500" fill="url(#paper)"/>
  <circle cx="958" cy="220" r="210" fill="#d8aea0" opacity=".18" filter="url(#soft)"/>
  <circle cx="184" cy="1200" r="270" fill="#7d8974" opacity=".13" filter="url(#soft)"/>
  <path d="M208 238c135 111 177 243 126 397M222 274c-74-18-128 23-149 96 78 12 135-27 149-96Zm49 91c-75 0-120 52-122 128 78-7 125-58 122-128Zm52 121c-73 20-103 83-84 156 72-27 105-89 84-156Z" fill="none" stroke="url(#gold)" stroke-width="8" stroke-linecap="round"/>
  <path d="M999 1015c-130 122-160 258-96 405M981 1054c75-25 135 11 163 82-79 20-141-15-163-82Zm-40 96c76-8 128 39 138 116-80 1-134-45-138-116Zm-40 129c74 12 111 71 101 147-76-19-115-78-101-147Z" fill="none" stroke="url(#gold)" stroke-width="8" stroke-linecap="round"/>
  <path d="M600 278c178 0 322 144 322 322S778 922 600 922 278 778 278 600 422 278 600 278Z" fill="#fffaf1" opacity=".58"/>
  <path d="M600 318c156 0 282 126 282 282S756 882 600 882 318 756 318 600 444 318 600 318Z" fill="none" stroke="#b89556" stroke-width="3" opacity=".55"/>
  <text x="600" y="560" text-anchor="middle" font-family="Georgia, serif" font-size="130" font-style="italic" fill="#6f5746">B</text>
  <text x="600" y="665" text-anchor="middle" font-family="Georgia, serif" font-size="72" fill="#b89556">&amp;</text>
  <text x="600" y="795" text-anchor="middle" font-family="Georgia, serif" font-size="130" font-style="italic" fill="#6f5746">A</text>
  <path d="M408 998h384" stroke="#b89556" stroke-width="3" opacity=".45"/>
  <text x="600" y="1080" text-anchor="middle" font-family="Georgia, serif" font-size="54" letter-spacing="10" fill="#3f3027">19.09.2026</text>
  <text x="600" y="1144" text-anchor="middle" font-family="Arial, sans-serif" font-size="24" letter-spacing="8" fill="#6f5746">IZMIR</text>
</svg>
